M48
;DRILL file {KiCad 4.0.7} date 01/28/18 01:48:16
;FORMAT={-:-/ absolute / metric / decimal}
FMAT,2
METRIC,TZ
T1C0.400
T2C0.500
T3C0.762
T4C0.800
T5C0.900
T6C1.000
T7C1.200
T8C1.500
T9C1.600
%
G90
G05
M71
T1
X150.17Y-130.08
X150.5Y-115.
X153.25Y-115.
X157.Y-125.25
X160.25Y-119.5
X165.652Y-72.501
X170.75Y-79.75
X170.75Y-83.25
X174.25Y-69.25
X177.75Y-81.5
X203.25Y-80.5
X203.4Y-82.15
T2
X137.Y-55.
X137.Y-58.
X137.Y-61.
X137.Y-64.
X137.Y-67.
X137.Y-70.
X137.Y-73.
X137.Y-76.
X137.Y-79.
X137.Y-82.
X137.Y-85.
X137.Y-88.
X137.Y-91.
X137.Y-94.
X137.Y-97.
X137.Y-100.
X137.Y-103.
X138.Y-105.
X139.Y-53.
X141.Y-105.
X142.Y-53.
X144.Y-105.
X145.Y-53.
X147.Y-105.
X148.Y-53.
X150.Y-105.
X151.Y-53.
X153.Y-105.
X154.Y-53.
X156.Y-105.
X156.425Y-120.575
X157.Y-53.
X159.Y-105.
X160.Y-53.
X160.25Y-121.5
X162.Y-105.
X163.Y-53.
X165.3Y-66.2
X166.Y-53.
X169.Y-53.
X169.Y-105.
X172.Y-53.
X173.5Y-64.
X173.75Y-74.75
X175.Y-53.
X175.Y-105.
X178.Y-53.
X181.Y-53.
X181.Y-105.
X181.3Y-76.45
X181.8Y-55.8
X184.Y-53.
X184.Y-105.
X185.4Y-76.6
X187.Y-53.
X187.Y-105.
X190.Y-53.
X190.Y-105.
X191.1Y-81.35
X191.35Y-77.15
X193.Y-53.
X193.Y-105.
X194.Y-74.25
X195.2Y-70.95
X196.Y-53.
X196.Y-105.
X198.625Y-109.125
X198.625Y-110.875
X198.625Y-117.125
X198.625Y-118.875
X198.65Y-63.8
X199.Y-53.
X199.Y-105.
X201.6Y-67.35
X202.Y-53.
X202.Y-105.
X203.25Y-85.5
X204.375Y-109.125
X204.375Y-110.875
X204.375Y-117.125
X204.375Y-118.875
X205.Y-53.
X205.Y-105.
X206.Y-55.
X206.Y-58.
X206.Y-61.
X206.Y-64.
X206.Y-67.
X206.Y-70.
X206.Y-73.
X206.Y-76.
X206.Y-79.
X206.Y-82.
X206.Y-85.
X206.Y-88.
X206.Y-91.
X206.Y-94.
X206.Y-97.
X206.Y-100.
X206.Y-103.
T3
X152.46Y-130.
X155.Y-130.
X157.54Y-130.
X160.08Y-130.
X162.62Y-130.
X165.16Y-130.
X167.7Y-130.
X170.24Y-130.
X173.21Y-130.
X175.75Y-130.
X178.29Y-130.
X180.83Y-130.
X183.37Y-130.
X185.91Y-130.
X188.45Y-130.
X190.99Y-130.
T4
X169.Y-124.
X171.Y-124.
X173.Y-124.
X175.Y-124.
X177.Y-124.
X179.Y-124.
X181.Y-124.
X183.Y-124.
X185.Y-124.
X187.Y-124.
X189.Y-124.
X191.Y-124.
T5
X201.7Y-124.5
X201.7Y-127.
X201.7Y-129.5
X205.Y-124.5
X205.Y-127.
X205.Y-129.5
T6
X147.Y-110.
X147.Y-112.54
X147.Y-119.92
X147.Y-122.46
X147.Y-125.
X147.Y-127.54
X147.Y-130.08
X169.Y-76.
X169.Y-86.
T7
X141.Y-95.5
X168.5Y-95.5
X174.5Y-95.5
X202.Y-95.5
T8
X169.25Y-58.11
T9
X166.71Y-55.57
X166.71Y-60.65
X171.79Y-55.57
X171.79Y-60.65
T0
M30
