G04 #@! TF.FileFunction,Legend,Bot*
%FSLAX46Y46*%
G04 Gerber Fmt 4.6, Leading zero omitted, Abs format (unit mm)*
G04 Created by KiCad (PCBNEW 4.0.7) date 01/28/18 20:20:08*
%MOMM*%
%LPD*%
G01*
G04 APERTURE LIST*
%ADD10C,0.100000*%
%ADD11C,0.300000*%
%ADD12C,0.120000*%
%ADD13C,0.150000*%
G04 APERTURE END LIST*
D10*
D11*
X145321428Y-120678571D02*
X145321428Y-119178571D01*
X143749999Y-120535714D02*
X143821428Y-120607143D01*
X144035714Y-120678571D01*
X144178571Y-120678571D01*
X144392856Y-120607143D01*
X144535714Y-120464286D01*
X144607142Y-120321429D01*
X144678571Y-120035714D01*
X144678571Y-119821429D01*
X144607142Y-119535714D01*
X144535714Y-119392857D01*
X144392856Y-119250000D01*
X144178571Y-119178571D01*
X144035714Y-119178571D01*
X143821428Y-119250000D01*
X143749999Y-119321429D01*
X143178571Y-120607143D02*
X142964285Y-120678571D01*
X142607142Y-120678571D01*
X142464285Y-120607143D01*
X142392856Y-120535714D01*
X142321428Y-120392857D01*
X142321428Y-120250000D01*
X142392856Y-120107143D01*
X142464285Y-120035714D01*
X142607142Y-119964286D01*
X142892856Y-119892857D01*
X143035714Y-119821429D01*
X143107142Y-119750000D01*
X143178571Y-119607143D01*
X143178571Y-119464286D01*
X143107142Y-119321429D01*
X143035714Y-119250000D01*
X142892856Y-119178571D01*
X142535714Y-119178571D01*
X142321428Y-119250000D01*
X141678571Y-120678571D02*
X141678571Y-119178571D01*
X141107143Y-119178571D01*
X140964285Y-119250000D01*
X140892857Y-119321429D01*
X140821428Y-119464286D01*
X140821428Y-119678571D01*
X140892857Y-119821429D01*
X140964285Y-119892857D01*
X141107143Y-119964286D01*
X141678571Y-119964286D01*
X139321428Y-120535714D02*
X139392857Y-120607143D01*
X139607143Y-120678571D01*
X139750000Y-120678571D01*
X139964285Y-120607143D01*
X140107143Y-120464286D01*
X140178571Y-120321429D01*
X140250000Y-120035714D01*
X140250000Y-119821429D01*
X140178571Y-119535714D01*
X140107143Y-119392857D01*
X139964285Y-119250000D01*
X139750000Y-119178571D01*
X139607143Y-119178571D01*
X139392857Y-119250000D01*
X139321428Y-119321429D01*
X137964285Y-120678571D02*
X138678571Y-120678571D01*
X138678571Y-119178571D01*
X137464285Y-120678571D02*
X137464285Y-119178571D01*
X136607142Y-120678571D02*
X137249999Y-119821429D01*
X136607142Y-119178571D02*
X137464285Y-120035714D01*
X145428571Y-123178571D02*
X145428571Y-121678571D01*
X143857142Y-123035714D02*
X143928571Y-123107143D01*
X144142857Y-123178571D01*
X144285714Y-123178571D01*
X144499999Y-123107143D01*
X144642857Y-122964286D01*
X144714285Y-122821429D01*
X144785714Y-122535714D01*
X144785714Y-122321429D01*
X144714285Y-122035714D01*
X144642857Y-121892857D01*
X144499999Y-121750000D01*
X144285714Y-121678571D01*
X144142857Y-121678571D01*
X143928571Y-121750000D01*
X143857142Y-121821429D01*
X143285714Y-123107143D02*
X143071428Y-123178571D01*
X142714285Y-123178571D01*
X142571428Y-123107143D01*
X142499999Y-123035714D01*
X142428571Y-122892857D01*
X142428571Y-122750000D01*
X142499999Y-122607143D01*
X142571428Y-122535714D01*
X142714285Y-122464286D01*
X142999999Y-122392857D01*
X143142857Y-122321429D01*
X143214285Y-122250000D01*
X143285714Y-122107143D01*
X143285714Y-121964286D01*
X143214285Y-121821429D01*
X143142857Y-121750000D01*
X142999999Y-121678571D01*
X142642857Y-121678571D01*
X142428571Y-121750000D01*
X141785714Y-123178571D02*
X141785714Y-121678571D01*
X141214286Y-121678571D01*
X141071428Y-121750000D01*
X141000000Y-121821429D01*
X140928571Y-121964286D01*
X140928571Y-122178571D01*
X141000000Y-122321429D01*
X141071428Y-122392857D01*
X141214286Y-122464286D01*
X141785714Y-122464286D01*
X140285714Y-123178571D02*
X140285714Y-121678571D01*
X139928571Y-121678571D01*
X139714286Y-121750000D01*
X139571428Y-121892857D01*
X139500000Y-122035714D01*
X139428571Y-122321429D01*
X139428571Y-122535714D01*
X139500000Y-122821429D01*
X139571428Y-122964286D01*
X139714286Y-123107143D01*
X139928571Y-123178571D01*
X140285714Y-123178571D01*
X138857143Y-122750000D02*
X138142857Y-122750000D01*
X139000000Y-123178571D02*
X138500000Y-121678571D01*
X138000000Y-123178571D01*
X137714286Y-121678571D02*
X136857143Y-121678571D01*
X137285714Y-123178571D02*
X137285714Y-121678571D01*
X144392857Y-124250000D02*
X144535714Y-124178571D01*
X144750000Y-124178571D01*
X144964285Y-124250000D01*
X145107143Y-124392857D01*
X145178571Y-124535714D01*
X145250000Y-124821429D01*
X145250000Y-125035714D01*
X145178571Y-125321429D01*
X145107143Y-125464286D01*
X144964285Y-125607143D01*
X144750000Y-125678571D01*
X144607143Y-125678571D01*
X144392857Y-125607143D01*
X144321428Y-125535714D01*
X144321428Y-125035714D01*
X144607143Y-125035714D01*
X143678571Y-125678571D02*
X143678571Y-124178571D01*
X142821428Y-125678571D01*
X142821428Y-124178571D01*
X142107142Y-125678571D02*
X142107142Y-124178571D01*
X141749999Y-124178571D01*
X141535714Y-124250000D01*
X141392856Y-124392857D01*
X141321428Y-124535714D01*
X141249999Y-124821429D01*
X141249999Y-125035714D01*
X141321428Y-125321429D01*
X141392856Y-125464286D01*
X141535714Y-125607143D01*
X141749999Y-125678571D01*
X142107142Y-125678571D01*
X145000000Y-129178571D02*
X144500000Y-130678571D01*
X144000000Y-129178571D01*
X143500000Y-130678571D02*
X143500000Y-129178571D01*
X142928572Y-129178571D01*
X142785714Y-129250000D01*
X142714286Y-129321429D01*
X142642857Y-129464286D01*
X142642857Y-129678571D01*
X142714286Y-129821429D01*
X142785714Y-129892857D01*
X142928572Y-129964286D01*
X143500000Y-129964286D01*
X142000000Y-130678571D02*
X142000000Y-129178571D01*
X141428572Y-129178571D01*
X141285714Y-129250000D01*
X141214286Y-129321429D01*
X141142857Y-129464286D01*
X141142857Y-129678571D01*
X141214286Y-129821429D01*
X141285714Y-129892857D01*
X141428572Y-129964286D01*
X142000000Y-129964286D01*
X145250000Y-126678571D02*
X144750000Y-128178571D01*
X144250000Y-126678571D01*
X143750000Y-128178571D02*
X143750000Y-126678571D01*
X143392857Y-126678571D01*
X143178572Y-126750000D01*
X143035714Y-126892857D01*
X142964286Y-127035714D01*
X142892857Y-127321429D01*
X142892857Y-127535714D01*
X142964286Y-127821429D01*
X143035714Y-127964286D01*
X143178572Y-128107143D01*
X143392857Y-128178571D01*
X143750000Y-128178571D01*
X142250000Y-128178571D02*
X142250000Y-126678571D01*
X141892857Y-126678571D01*
X141678572Y-126750000D01*
X141535714Y-126892857D01*
X141464286Y-127035714D01*
X141392857Y-127321429D01*
X141392857Y-127535714D01*
X141464286Y-127821429D01*
X141535714Y-127964286D01*
X141678572Y-128107143D01*
X141892857Y-128178571D01*
X142250000Y-128178571D01*
X144392857Y-109250000D02*
X144535714Y-109178571D01*
X144750000Y-109178571D01*
X144964285Y-109250000D01*
X145107143Y-109392857D01*
X145178571Y-109535714D01*
X145250000Y-109821429D01*
X145250000Y-110035714D01*
X145178571Y-110321429D01*
X145107143Y-110464286D01*
X144964285Y-110607143D01*
X144750000Y-110678571D01*
X144607143Y-110678571D01*
X144392857Y-110607143D01*
X144321428Y-110535714D01*
X144321428Y-110035714D01*
X144607143Y-110035714D01*
X143678571Y-110678571D02*
X143678571Y-109178571D01*
X142821428Y-110678571D01*
X142821428Y-109178571D01*
X142107142Y-110678571D02*
X142107142Y-109178571D01*
X141749999Y-109178571D01*
X141535714Y-109250000D01*
X141392856Y-109392857D01*
X141321428Y-109535714D01*
X141249999Y-109821429D01*
X141249999Y-110035714D01*
X141321428Y-110321429D01*
X141392856Y-110464286D01*
X141535714Y-110607143D01*
X141749999Y-110678571D01*
X142107142Y-110678571D01*
X145321428Y-111678571D02*
X144821428Y-113178571D01*
X144321428Y-111678571D01*
X143821428Y-113178571D02*
X143821428Y-112178571D01*
X143821428Y-112464286D02*
X143750000Y-112321429D01*
X143678571Y-112250000D01*
X143535714Y-112178571D01*
X143392857Y-112178571D01*
X142892857Y-113178571D02*
X142892857Y-112178571D01*
X142892857Y-112321429D02*
X142821429Y-112250000D01*
X142678571Y-112178571D01*
X142464286Y-112178571D01*
X142321429Y-112250000D01*
X142250000Y-112392857D01*
X142250000Y-113178571D01*
X142250000Y-112392857D02*
X142178571Y-112250000D01*
X142035714Y-112178571D01*
X141821429Y-112178571D01*
X141678571Y-112250000D01*
X141607143Y-112392857D01*
X141607143Y-113178571D01*
X140964286Y-113107143D02*
X140821429Y-113178571D01*
X140535714Y-113178571D01*
X140392857Y-113107143D01*
X140321429Y-112964286D01*
X140321429Y-112892857D01*
X140392857Y-112750000D01*
X140535714Y-112678571D01*
X140750000Y-112678571D01*
X140892857Y-112607143D01*
X140964286Y-112464286D01*
X140964286Y-112392857D01*
X140892857Y-112250000D01*
X140750000Y-112178571D01*
X140535714Y-112178571D01*
X140392857Y-112250000D01*
D12*
X204750000Y-107250000D02*
X204750000Y-106600000D01*
X204750000Y-106600000D02*
X198250000Y-106600000D01*
X198250000Y-106600000D02*
X198250000Y-107250000D01*
X204750000Y-112750000D02*
X204750000Y-113400000D01*
X204750000Y-113400000D02*
X198250000Y-113400000D01*
X198250000Y-113400000D02*
X198250000Y-112750000D01*
X204750000Y-111250000D02*
X204750000Y-108750000D01*
X198250000Y-111250000D02*
X198250000Y-108750000D01*
X145834630Y-62888211D02*
G75*
G03X142988000Y-67390000I7845370J-8111789D01*
G01*
X161525370Y-79111789D02*
G75*
G03X164372000Y-74610000I-7845370J8111789D01*
G01*
X161525370Y-62888211D02*
G75*
G02X164372000Y-67390000I-7845370J-8111789D01*
G01*
X145834630Y-79111789D02*
G75*
G02X142988000Y-74610000I7845370J8111789D01*
G01*
X139370000Y-69100000D02*
X139370000Y-67390000D01*
X142988000Y-67390000D02*
X139370000Y-67390000D01*
X149820000Y-62890000D02*
X145832700Y-62890000D01*
X152020000Y-65090000D02*
X149820000Y-62890000D01*
X155340000Y-65090000D02*
X152020000Y-65090000D01*
X155340000Y-65090000D02*
X157540000Y-62890000D01*
X161527300Y-62890000D02*
X157540000Y-62890000D01*
X167990000Y-69100000D02*
X167990000Y-67390000D01*
X167990000Y-67390000D02*
X164372000Y-67390000D01*
X164372000Y-74610000D02*
X167990000Y-74610000D01*
X167990000Y-72900000D02*
X167990000Y-74610000D01*
X145832700Y-79110000D02*
X161527300Y-79110000D01*
X139370000Y-72900000D02*
X139370000Y-74610000D01*
X139370000Y-74610000D02*
X142988000Y-74610000D01*
X181474630Y-62888211D02*
G75*
G03X178628000Y-67390000I7845370J-8111789D01*
G01*
X197165370Y-79111789D02*
G75*
G03X200012000Y-74610000I-7845370J8111789D01*
G01*
X197165370Y-62888211D02*
G75*
G02X200012000Y-67390000I-7845370J-8111789D01*
G01*
X181474630Y-79111789D02*
G75*
G02X178628000Y-74610000I7845370J8111789D01*
G01*
X175010000Y-69100000D02*
X175010000Y-67390000D01*
X178628000Y-67390000D02*
X175010000Y-67390000D01*
X185460000Y-62890000D02*
X181472700Y-62890000D01*
X187660000Y-65090000D02*
X185460000Y-62890000D01*
X190980000Y-65090000D02*
X187660000Y-65090000D01*
X190980000Y-65090000D02*
X193180000Y-62890000D01*
X197167300Y-62890000D02*
X193180000Y-62890000D01*
X203630000Y-69100000D02*
X203630000Y-67390000D01*
X203630000Y-67390000D02*
X200012000Y-67390000D01*
X200012000Y-74610000D02*
X203630000Y-74610000D01*
X203630000Y-72900000D02*
X203630000Y-74610000D01*
X181472700Y-79110000D02*
X197167300Y-79110000D01*
X175010000Y-72900000D02*
X175010000Y-74610000D01*
X175010000Y-74610000D02*
X178628000Y-74610000D01*
X204750000Y-115250000D02*
X204750000Y-114600000D01*
X204750000Y-114600000D02*
X198250000Y-114600000D01*
X198250000Y-114600000D02*
X198250000Y-115250000D01*
X204750000Y-120750000D02*
X204750000Y-121400000D01*
X204750000Y-121400000D02*
X198250000Y-121400000D01*
X198250000Y-121400000D02*
X198250000Y-120750000D01*
X204750000Y-119250000D02*
X204750000Y-116750000D01*
X198250000Y-119250000D02*
X198250000Y-116750000D01*
D13*
X206990000Y-90000000D02*
X206990000Y-132000000D01*
X156990000Y-90000000D02*
X206990000Y-90000000D01*
X156990000Y-132000000D02*
X156990000Y-90000000D01*
X206990000Y-132000000D02*
X156990000Y-132000000D01*
X186240000Y-90000000D02*
X186240000Y-132000000D01*
X136240000Y-90000000D02*
X186240000Y-90000000D01*
X136240000Y-132000000D02*
X136240000Y-90000000D01*
X186240000Y-132000000D02*
X136240000Y-132000000D01*
X196583333Y-110654762D02*
X196440476Y-110702381D01*
X196202380Y-110702381D01*
X196107142Y-110654762D01*
X196059523Y-110607143D01*
X196011904Y-110511905D01*
X196011904Y-110416667D01*
X196059523Y-110321429D01*
X196107142Y-110273810D01*
X196202380Y-110226190D01*
X196392857Y-110178571D01*
X196488095Y-110130952D01*
X196535714Y-110083333D01*
X196583333Y-109988095D01*
X196583333Y-109892857D01*
X196535714Y-109797619D01*
X196488095Y-109750000D01*
X196392857Y-109702381D01*
X196154761Y-109702381D01*
X196011904Y-109750000D01*
X195678571Y-109702381D02*
X195440476Y-110702381D01*
X195249999Y-109988095D01*
X195059523Y-110702381D01*
X194821428Y-109702381D01*
X194488095Y-109797619D02*
X194440476Y-109750000D01*
X194345238Y-109702381D01*
X194107142Y-109702381D01*
X194011904Y-109750000D01*
X193964285Y-109797619D01*
X193916666Y-109892857D01*
X193916666Y-109988095D01*
X193964285Y-110130952D01*
X194535714Y-110702381D01*
X193916666Y-110702381D01*
X154465714Y-63308571D02*
X154322857Y-63356190D01*
X154275238Y-63403810D01*
X154227619Y-63499048D01*
X154227619Y-63641905D01*
X154275238Y-63737143D01*
X154322857Y-63784762D01*
X154418095Y-63832381D01*
X154799048Y-63832381D01*
X154799048Y-62832381D01*
X154465714Y-62832381D01*
X154370476Y-62880000D01*
X154322857Y-62927619D01*
X154275238Y-63022857D01*
X154275238Y-63118095D01*
X154322857Y-63213333D01*
X154370476Y-63260952D01*
X154465714Y-63308571D01*
X154799048Y-63308571D01*
X153941905Y-62832381D02*
X153370476Y-62832381D01*
X153656191Y-63832381D02*
X153656191Y-62832381D01*
X152513333Y-63832381D02*
X153084762Y-63832381D01*
X152799048Y-63832381D02*
X152799048Y-62832381D01*
X152894286Y-62975238D01*
X152989524Y-63070476D01*
X153084762Y-63118095D01*
X190105714Y-63308571D02*
X189962857Y-63356190D01*
X189915238Y-63403810D01*
X189867619Y-63499048D01*
X189867619Y-63641905D01*
X189915238Y-63737143D01*
X189962857Y-63784762D01*
X190058095Y-63832381D01*
X190439048Y-63832381D01*
X190439048Y-62832381D01*
X190105714Y-62832381D01*
X190010476Y-62880000D01*
X189962857Y-62927619D01*
X189915238Y-63022857D01*
X189915238Y-63118095D01*
X189962857Y-63213333D01*
X190010476Y-63260952D01*
X190105714Y-63308571D01*
X190439048Y-63308571D01*
X189581905Y-62832381D02*
X189010476Y-62832381D01*
X189296191Y-63832381D02*
X189296191Y-62832381D01*
X188724762Y-62927619D02*
X188677143Y-62880000D01*
X188581905Y-62832381D01*
X188343809Y-62832381D01*
X188248571Y-62880000D01*
X188200952Y-62927619D01*
X188153333Y-63022857D01*
X188153333Y-63118095D01*
X188200952Y-63260952D01*
X188772381Y-63832381D01*
X188153333Y-63832381D01*
X196583333Y-118654762D02*
X196440476Y-118702381D01*
X196202380Y-118702381D01*
X196107142Y-118654762D01*
X196059523Y-118607143D01*
X196011904Y-118511905D01*
X196011904Y-118416667D01*
X196059523Y-118321429D01*
X196107142Y-118273810D01*
X196202380Y-118226190D01*
X196392857Y-118178571D01*
X196488095Y-118130952D01*
X196535714Y-118083333D01*
X196583333Y-117988095D01*
X196583333Y-117892857D01*
X196535714Y-117797619D01*
X196488095Y-117750000D01*
X196392857Y-117702381D01*
X196154761Y-117702381D01*
X196011904Y-117750000D01*
X195678571Y-117702381D02*
X195440476Y-118702381D01*
X195249999Y-117988095D01*
X195059523Y-118702381D01*
X194821428Y-117702381D01*
X194535714Y-117702381D02*
X193916666Y-117702381D01*
X194250000Y-118083333D01*
X194107142Y-118083333D01*
X194011904Y-118130952D01*
X193964285Y-118178571D01*
X193916666Y-118273810D01*
X193916666Y-118511905D01*
X193964285Y-118607143D01*
X194011904Y-118654762D01*
X194107142Y-118702381D01*
X194392857Y-118702381D01*
X194488095Y-118654762D01*
X194535714Y-118607143D01*
X185714285Y-131857143D02*
X185761904Y-131904762D01*
X185904761Y-131952381D01*
X185999999Y-131952381D01*
X186142857Y-131904762D01*
X186238095Y-131809524D01*
X186285714Y-131714286D01*
X186333333Y-131523810D01*
X186333333Y-131380952D01*
X186285714Y-131190476D01*
X186238095Y-131095238D01*
X186142857Y-131000000D01*
X185999999Y-130952381D01*
X185904761Y-130952381D01*
X185761904Y-131000000D01*
X185714285Y-131047619D01*
X185095238Y-130952381D02*
X184904761Y-130952381D01*
X184809523Y-131000000D01*
X184714285Y-131095238D01*
X184666666Y-131285714D01*
X184666666Y-131619048D01*
X184714285Y-131809524D01*
X184809523Y-131904762D01*
X184904761Y-131952381D01*
X185095238Y-131952381D01*
X185190476Y-131904762D01*
X185285714Y-131809524D01*
X185333333Y-131619048D01*
X185333333Y-131285714D01*
X185285714Y-131095238D01*
X185190476Y-131000000D01*
X185095238Y-130952381D01*
X184238095Y-131952381D02*
X184238095Y-130952381D01*
X183666666Y-131952381D01*
X183666666Y-130952381D01*
X183285714Y-130952381D02*
X182666666Y-130952381D01*
X183000000Y-131333333D01*
X182857142Y-131333333D01*
X182761904Y-131380952D01*
X182714285Y-131428571D01*
X182666666Y-131523810D01*
X182666666Y-131761905D01*
X182714285Y-131857143D01*
X182761904Y-131904762D01*
X182857142Y-131952381D01*
X183142857Y-131952381D01*
X183238095Y-131904762D01*
X183285714Y-131857143D01*
X190490000Y-126063096D02*
X190442381Y-125967858D01*
X190442381Y-125825001D01*
X190490000Y-125682143D01*
X190585238Y-125586905D01*
X190680476Y-125539286D01*
X190870952Y-125491667D01*
X191013810Y-125491667D01*
X191204286Y-125539286D01*
X191299524Y-125586905D01*
X191394762Y-125682143D01*
X191442381Y-125825001D01*
X191442381Y-125920239D01*
X191394762Y-126063096D01*
X191347143Y-126110715D01*
X191013810Y-126110715D01*
X191013810Y-125920239D01*
X191442381Y-126539286D02*
X190442381Y-126539286D01*
X191442381Y-127110715D01*
X190442381Y-127110715D01*
X191442381Y-127586905D02*
X190442381Y-127586905D01*
X190442381Y-127825000D01*
X190490000Y-127967858D01*
X190585238Y-128063096D01*
X190680476Y-128110715D01*
X190870952Y-128158334D01*
X191013810Y-128158334D01*
X191204286Y-128110715D01*
X191299524Y-128063096D01*
X191394762Y-127967858D01*
X191442381Y-127825000D01*
X191442381Y-127586905D01*
X173662381Y-126182143D02*
X173662381Y-125705952D01*
X172662381Y-125705952D01*
X173138571Y-126515476D02*
X173138571Y-126848810D01*
X173662381Y-126991667D02*
X173662381Y-126515476D01*
X172662381Y-126515476D01*
X172662381Y-126991667D01*
X173662381Y-127420238D02*
X172662381Y-127420238D01*
X172662381Y-127658333D01*
X172710000Y-127801191D01*
X172805238Y-127896429D01*
X172900476Y-127944048D01*
X173090952Y-127991667D01*
X173233810Y-127991667D01*
X173424286Y-127944048D01*
X173519524Y-127896429D01*
X173614762Y-127801191D01*
X173662381Y-127658333D01*
X173662381Y-127420238D01*
X187902381Y-125491667D02*
X188902381Y-125825000D01*
X187902381Y-126158334D01*
X188807143Y-127063096D02*
X188854762Y-127015477D01*
X188902381Y-126872620D01*
X188902381Y-126777382D01*
X188854762Y-126634524D01*
X188759524Y-126539286D01*
X188664286Y-126491667D01*
X188473810Y-126444048D01*
X188330952Y-126444048D01*
X188140476Y-126491667D01*
X188045238Y-126539286D01*
X187950000Y-126634524D01*
X187902381Y-126777382D01*
X187902381Y-126872620D01*
X187950000Y-127015477D01*
X187997619Y-127063096D01*
X188807143Y-128063096D02*
X188854762Y-128015477D01*
X188902381Y-127872620D01*
X188902381Y-127777382D01*
X188854762Y-127634524D01*
X188759524Y-127539286D01*
X188664286Y-127491667D01*
X188473810Y-127444048D01*
X188330952Y-127444048D01*
X188140476Y-127491667D01*
X188045238Y-127539286D01*
X187950000Y-127634524D01*
X187902381Y-127777382D01*
X187902381Y-127872620D01*
X187950000Y-128015477D01*
X187997619Y-128063096D01*
X186267143Y-126229762D02*
X186314762Y-126182143D01*
X186362381Y-126039286D01*
X186362381Y-125944048D01*
X186314762Y-125801190D01*
X186219524Y-125705952D01*
X186124286Y-125658333D01*
X185933810Y-125610714D01*
X185790952Y-125610714D01*
X185600476Y-125658333D01*
X185505238Y-125705952D01*
X185410000Y-125801190D01*
X185362381Y-125944048D01*
X185362381Y-126039286D01*
X185410000Y-126182143D01*
X185457619Y-126229762D01*
X186362381Y-127134524D02*
X186362381Y-126658333D01*
X185362381Y-126658333D01*
X186362381Y-127467857D02*
X185362381Y-127467857D01*
X186362381Y-128039286D02*
X185790952Y-127610714D01*
X185362381Y-128039286D02*
X185933810Y-127467857D01*
X183822381Y-125801191D02*
X182822381Y-125801191D01*
X182822381Y-126039286D01*
X182870000Y-126182144D01*
X182965238Y-126277382D01*
X183060476Y-126325001D01*
X183250952Y-126372620D01*
X183393810Y-126372620D01*
X183584286Y-126325001D01*
X183679524Y-126277382D01*
X183774762Y-126182144D01*
X183822381Y-126039286D01*
X183822381Y-125801191D01*
X183822381Y-126801191D02*
X182822381Y-126801191D01*
X183822381Y-127277381D02*
X182822381Y-127277381D01*
X183822381Y-127848810D01*
X182822381Y-127848810D01*
X181282381Y-125539286D02*
X180282381Y-125539286D01*
X180282381Y-125777381D01*
X180330000Y-125920239D01*
X180425238Y-126015477D01*
X180520476Y-126063096D01*
X180710952Y-126110715D01*
X180853810Y-126110715D01*
X181044286Y-126063096D01*
X181139524Y-126015477D01*
X181234762Y-125920239D01*
X181282381Y-125777381D01*
X181282381Y-125539286D01*
X180234762Y-127253572D02*
X181520476Y-126396429D01*
X181187143Y-128158334D02*
X181234762Y-128110715D01*
X181282381Y-127967858D01*
X181282381Y-127872620D01*
X181234762Y-127729762D01*
X181139524Y-127634524D01*
X181044286Y-127586905D01*
X180853810Y-127539286D01*
X180710952Y-127539286D01*
X180520476Y-127586905D01*
X180425238Y-127634524D01*
X180330000Y-127729762D01*
X180282381Y-127872620D01*
X180282381Y-127967858D01*
X180330000Y-128110715D01*
X180377619Y-128158334D01*
X180110000Y-127348810D02*
X180110000Y-128348810D01*
X178647143Y-127039334D02*
X178694762Y-126991715D01*
X178742381Y-126848858D01*
X178742381Y-126753620D01*
X178694762Y-126610762D01*
X178599524Y-126515524D01*
X178504286Y-126467905D01*
X178313810Y-126420286D01*
X178170952Y-126420286D01*
X177980476Y-126467905D01*
X177885238Y-126515524D01*
X177790000Y-126610762D01*
X177742381Y-126753620D01*
X177742381Y-126848858D01*
X177790000Y-126991715D01*
X177837619Y-127039334D01*
X178694762Y-127420286D02*
X178742381Y-127563143D01*
X178742381Y-127801239D01*
X178694762Y-127896477D01*
X178647143Y-127944096D01*
X178551905Y-127991715D01*
X178456667Y-127991715D01*
X178361429Y-127944096D01*
X178313810Y-127896477D01*
X178266190Y-127801239D01*
X178218571Y-127610762D01*
X178170952Y-127515524D01*
X178123333Y-127467905D01*
X178028095Y-127420286D01*
X177932857Y-127420286D01*
X177837619Y-127467905D01*
X177790000Y-127515524D01*
X177742381Y-127610762D01*
X177742381Y-127848858D01*
X177790000Y-127991715D01*
X177570000Y-126229810D02*
X177570000Y-128182191D01*
X176202381Y-126277381D02*
X175726190Y-125944047D01*
X176202381Y-125705952D02*
X175202381Y-125705952D01*
X175202381Y-126086905D01*
X175250000Y-126182143D01*
X175297619Y-126229762D01*
X175392857Y-126277381D01*
X175535714Y-126277381D01*
X175630952Y-126229762D01*
X175678571Y-126182143D01*
X175726190Y-126086905D01*
X175726190Y-125705952D01*
X176154762Y-126658333D02*
X176202381Y-126801190D01*
X176202381Y-127039286D01*
X176154762Y-127134524D01*
X176107143Y-127182143D01*
X176011905Y-127229762D01*
X175916667Y-127229762D01*
X175821429Y-127182143D01*
X175773810Y-127134524D01*
X175726190Y-127039286D01*
X175678571Y-126848809D01*
X175630952Y-126753571D01*
X175583333Y-126705952D01*
X175488095Y-126658333D01*
X175392857Y-126658333D01*
X175297619Y-126705952D01*
X175250000Y-126753571D01*
X175202381Y-126848809D01*
X175202381Y-127086905D01*
X175250000Y-127229762D01*
X175202381Y-127515476D02*
X175202381Y-128086905D01*
X176202381Y-127801190D02*
X175202381Y-127801190D01*
X175030000Y-125467857D02*
X175030000Y-128182143D01*
X164714285Y-131857143D02*
X164761904Y-131904762D01*
X164904761Y-131952381D01*
X164999999Y-131952381D01*
X165142857Y-131904762D01*
X165238095Y-131809524D01*
X165285714Y-131714286D01*
X165333333Y-131523810D01*
X165333333Y-131380952D01*
X165285714Y-131190476D01*
X165238095Y-131095238D01*
X165142857Y-131000000D01*
X164999999Y-130952381D01*
X164904761Y-130952381D01*
X164761904Y-131000000D01*
X164714285Y-131047619D01*
X164095238Y-130952381D02*
X163904761Y-130952381D01*
X163809523Y-131000000D01*
X163714285Y-131095238D01*
X163666666Y-131285714D01*
X163666666Y-131619048D01*
X163714285Y-131809524D01*
X163809523Y-131904762D01*
X163904761Y-131952381D01*
X164095238Y-131952381D01*
X164190476Y-131904762D01*
X164285714Y-131809524D01*
X164333333Y-131619048D01*
X164333333Y-131285714D01*
X164285714Y-131095238D01*
X164190476Y-131000000D01*
X164095238Y-130952381D01*
X163238095Y-131952381D02*
X163238095Y-130952381D01*
X162666666Y-131952381D01*
X162666666Y-130952381D01*
X162238095Y-131047619D02*
X162190476Y-131000000D01*
X162095238Y-130952381D01*
X161857142Y-130952381D01*
X161761904Y-131000000D01*
X161714285Y-131047619D01*
X161666666Y-131142857D01*
X161666666Y-131238095D01*
X161714285Y-131380952D01*
X162285714Y-131952381D01*
X161666666Y-131952381D01*
X151960000Y-126063096D02*
X151912381Y-125967858D01*
X151912381Y-125825001D01*
X151960000Y-125682143D01*
X152055238Y-125586905D01*
X152150476Y-125539286D01*
X152340952Y-125491667D01*
X152483810Y-125491667D01*
X152674286Y-125539286D01*
X152769524Y-125586905D01*
X152864762Y-125682143D01*
X152912381Y-125825001D01*
X152912381Y-125920239D01*
X152864762Y-126063096D01*
X152817143Y-126110715D01*
X152483810Y-126110715D01*
X152483810Y-125920239D01*
X152912381Y-126539286D02*
X151912381Y-126539286D01*
X152912381Y-127110715D01*
X151912381Y-127110715D01*
X152912381Y-127586905D02*
X151912381Y-127586905D01*
X151912381Y-127825000D01*
X151960000Y-127967858D01*
X152055238Y-128063096D01*
X152150476Y-128110715D01*
X152340952Y-128158334D01*
X152483810Y-128158334D01*
X152674286Y-128110715D01*
X152769524Y-128063096D01*
X152864762Y-127967858D01*
X152912381Y-127825000D01*
X152912381Y-127586905D01*
X154928571Y-127126667D02*
X154976190Y-127269524D01*
X155023810Y-127317143D01*
X155119048Y-127364762D01*
X155261905Y-127364762D01*
X155357143Y-127317143D01*
X155404762Y-127269524D01*
X155452381Y-127174286D01*
X155452381Y-126793333D01*
X154452381Y-126793333D01*
X154452381Y-127126667D01*
X154500000Y-127221905D01*
X154547619Y-127269524D01*
X154642857Y-127317143D01*
X154738095Y-127317143D01*
X154833333Y-127269524D01*
X154880952Y-127221905D01*
X154928571Y-127126667D01*
X154928571Y-126793333D01*
X155452381Y-128269524D02*
X155452381Y-127793333D01*
X154452381Y-127793333D01*
X156992381Y-125491667D02*
X157992381Y-125825000D01*
X156992381Y-126158334D01*
X157897143Y-127063096D02*
X157944762Y-127015477D01*
X157992381Y-126872620D01*
X157992381Y-126777382D01*
X157944762Y-126634524D01*
X157849524Y-126539286D01*
X157754286Y-126491667D01*
X157563810Y-126444048D01*
X157420952Y-126444048D01*
X157230476Y-126491667D01*
X157135238Y-126539286D01*
X157040000Y-126634524D01*
X156992381Y-126777382D01*
X156992381Y-126872620D01*
X157040000Y-127015477D01*
X157087619Y-127063096D01*
X157897143Y-128063096D02*
X157944762Y-128015477D01*
X157992381Y-127872620D01*
X157992381Y-127777382D01*
X157944762Y-127634524D01*
X157849524Y-127539286D01*
X157754286Y-127491667D01*
X157563810Y-127444048D01*
X157420952Y-127444048D01*
X157230476Y-127491667D01*
X157135238Y-127539286D01*
X157040000Y-127634524D01*
X156992381Y-127777382D01*
X156992381Y-127872620D01*
X157040000Y-128015477D01*
X157087619Y-128063096D01*
X160437143Y-126229762D02*
X160484762Y-126182143D01*
X160532381Y-126039286D01*
X160532381Y-125944048D01*
X160484762Y-125801190D01*
X160389524Y-125705952D01*
X160294286Y-125658333D01*
X160103810Y-125610714D01*
X159960952Y-125610714D01*
X159770476Y-125658333D01*
X159675238Y-125705952D01*
X159580000Y-125801190D01*
X159532381Y-125944048D01*
X159532381Y-126039286D01*
X159580000Y-126182143D01*
X159627619Y-126229762D01*
X160532381Y-127134524D02*
X160532381Y-126658333D01*
X159532381Y-126658333D01*
X160532381Y-127467857D02*
X159532381Y-127467857D01*
X160532381Y-128039286D02*
X159960952Y-127610714D01*
X159532381Y-128039286D02*
X160103810Y-127467857D01*
X163072381Y-125801191D02*
X162072381Y-125801191D01*
X162072381Y-126039286D01*
X162120000Y-126182144D01*
X162215238Y-126277382D01*
X162310476Y-126325001D01*
X162500952Y-126372620D01*
X162643810Y-126372620D01*
X162834286Y-126325001D01*
X162929524Y-126277382D01*
X163024762Y-126182144D01*
X163072381Y-126039286D01*
X163072381Y-125801191D01*
X163072381Y-126801191D02*
X162072381Y-126801191D01*
X163072381Y-127277381D02*
X162072381Y-127277381D01*
X163072381Y-127848810D01*
X162072381Y-127848810D01*
X165612381Y-125539286D02*
X164612381Y-125539286D01*
X164612381Y-125777381D01*
X164660000Y-125920239D01*
X164755238Y-126015477D01*
X164850476Y-126063096D01*
X165040952Y-126110715D01*
X165183810Y-126110715D01*
X165374286Y-126063096D01*
X165469524Y-126015477D01*
X165564762Y-125920239D01*
X165612381Y-125777381D01*
X165612381Y-125539286D01*
X164564762Y-127253572D02*
X165850476Y-126396429D01*
X165517143Y-128158334D02*
X165564762Y-128110715D01*
X165612381Y-127967858D01*
X165612381Y-127872620D01*
X165564762Y-127729762D01*
X165469524Y-127634524D01*
X165374286Y-127586905D01*
X165183810Y-127539286D01*
X165040952Y-127539286D01*
X164850476Y-127586905D01*
X164755238Y-127634524D01*
X164660000Y-127729762D01*
X164612381Y-127872620D01*
X164612381Y-127967858D01*
X164660000Y-128110715D01*
X164707619Y-128158334D01*
X164440000Y-127348810D02*
X164440000Y-128348810D01*
X168057143Y-127063143D02*
X168104762Y-127015524D01*
X168152381Y-126872667D01*
X168152381Y-126777429D01*
X168104762Y-126634571D01*
X168009524Y-126539333D01*
X167914286Y-126491714D01*
X167723810Y-126444095D01*
X167580952Y-126444095D01*
X167390476Y-126491714D01*
X167295238Y-126539333D01*
X167200000Y-126634571D01*
X167152381Y-126777429D01*
X167152381Y-126872667D01*
X167200000Y-127015524D01*
X167247619Y-127063143D01*
X167628571Y-127491714D02*
X167628571Y-127825048D01*
X168152381Y-127967905D02*
X168152381Y-127491714D01*
X167152381Y-127491714D01*
X167152381Y-127967905D01*
X166980000Y-126253619D02*
X166980000Y-128158381D01*
X170692381Y-126277381D02*
X170216190Y-125944047D01*
X170692381Y-125705952D02*
X169692381Y-125705952D01*
X169692381Y-126086905D01*
X169740000Y-126182143D01*
X169787619Y-126229762D01*
X169882857Y-126277381D01*
X170025714Y-126277381D01*
X170120952Y-126229762D01*
X170168571Y-126182143D01*
X170216190Y-126086905D01*
X170216190Y-125705952D01*
X170644762Y-126658333D02*
X170692381Y-126801190D01*
X170692381Y-127039286D01*
X170644762Y-127134524D01*
X170597143Y-127182143D01*
X170501905Y-127229762D01*
X170406667Y-127229762D01*
X170311429Y-127182143D01*
X170263810Y-127134524D01*
X170216190Y-127039286D01*
X170168571Y-126848809D01*
X170120952Y-126753571D01*
X170073333Y-126705952D01*
X169978095Y-126658333D01*
X169882857Y-126658333D01*
X169787619Y-126705952D01*
X169740000Y-126753571D01*
X169692381Y-126848809D01*
X169692381Y-127086905D01*
X169740000Y-127229762D01*
X169692381Y-127515476D02*
X169692381Y-128086905D01*
X170692381Y-127801190D02*
X169692381Y-127801190D01*
X169520000Y-125467857D02*
X169520000Y-128182143D01*
M02*
