G04 #@! TF.FileFunction,Soldermask,Top*
%FSLAX46Y46*%
G04 Gerber Fmt 4.6, Leading zero omitted, Abs format (unit mm)*
G04 Created by KiCad (PCBNEW 4.0.7) date 01/28/18 20:20:08*
%MOMM*%
%LPD*%
G01*
G04 APERTURE LIST*
%ADD10C,0.100000*%
%ADD11C,1.000000*%
%ADD12R,1.900000X1.900000*%
%ADD13C,1.900000*%
%ADD14C,2.400000*%
%ADD15C,2.800000*%
%ADD16R,1.670000X0.806400*%
%ADD17R,4.150000X3.100000*%
%ADD18R,3.000000X2.000000*%
%ADD19R,1.600000X1.300000*%
%ADD20R,1.150000X1.600000*%
%ADD21R,1.600000X1.150000*%
%ADD22R,2.900000X4.400000*%
%ADD23R,1.200000X1.300000*%
%ADD24R,1.300000X1.600000*%
%ADD25R,2.150000X0.850000*%
%ADD26R,2.100000X2.100000*%
%ADD27O,2.100000X2.100000*%
%ADD28R,1.700000X2.400000*%
%ADD29R,2.400000X2.400000*%
%ADD30R,1.700000X1.400000*%
%ADD31R,3.300000X0.900000*%
%ADD32R,2.000000X3.000000*%
%ADD33R,1.100000X1.700000*%
%ADD34R,1.700000X1.100000*%
%ADD35R,1.543000X0.908000*%
%ADD36R,0.908000X1.543000*%
%ADD37R,1.800000X1.800000*%
%ADD38C,1.800000*%
%ADD39R,3.150000X1.400000*%
%ADD40C,1.924000*%
%ADD41C,2.900000*%
%ADD42C,3.000000*%
G04 APERTURE END LIST*
D10*
D11*
X137000000Y-105000000D02*
X161000000Y-105000000D01*
X206000000Y-105000000D02*
X182000000Y-105000000D01*
X206000000Y-53000000D02*
X206000000Y-105000000D01*
X137000000Y-53000000D02*
X206000000Y-53000000D01*
X137000000Y-105000000D02*
X137000000Y-53000000D01*
D12*
X169000000Y-124000000D03*
D13*
X171000000Y-124000000D03*
X173000000Y-124000000D03*
X175000000Y-124000000D03*
X177000000Y-124000000D03*
X179000000Y-124000000D03*
X181000000Y-124000000D03*
X183000000Y-124000000D03*
X185000000Y-124000000D03*
X187000000Y-124000000D03*
X189000000Y-124000000D03*
X191000000Y-124000000D03*
D14*
X169000000Y-76000000D03*
X169000000Y-86000000D03*
D15*
X202000000Y-95500000D03*
X174500000Y-95500000D03*
D16*
X179417000Y-86421000D03*
X179417000Y-85786000D03*
X179417000Y-85125600D03*
X179417000Y-84465200D03*
X179417000Y-83830200D03*
X179417000Y-83169800D03*
X179417000Y-82509400D03*
X179417000Y-81874400D03*
X179417000Y-81214000D03*
X179417000Y-80579000D03*
X174083000Y-80579000D03*
X174083000Y-81214000D03*
X174083000Y-81874400D03*
X174083000Y-82509400D03*
X174083000Y-83169800D03*
X174083000Y-83830200D03*
X174083000Y-84465200D03*
X174083000Y-85125600D03*
X174083000Y-85786000D03*
X174083000Y-86421000D03*
D17*
X154225000Y-61000000D03*
X161775000Y-61000000D03*
D18*
X198000000Y-69200000D03*
X201600000Y-69200000D03*
D19*
X200100000Y-78800000D03*
X202300000Y-78800000D03*
D20*
X195200000Y-67650000D03*
X195200000Y-69550000D03*
X182500000Y-76450000D03*
X182500000Y-74550000D03*
D21*
X200100000Y-85500000D03*
X202000000Y-85500000D03*
D20*
X192400000Y-81350000D03*
X192400000Y-79450000D03*
D22*
X179200000Y-63800000D03*
X179200000Y-55800000D03*
D20*
X192400000Y-75250000D03*
X192400000Y-77150000D03*
D21*
X202350000Y-72800000D03*
X200450000Y-72800000D03*
X200100000Y-80500000D03*
X202000000Y-80500000D03*
X200100000Y-83850000D03*
X202000000Y-83850000D03*
D20*
X165000000Y-121300000D03*
X165000000Y-123200000D03*
D23*
X168450000Y-68500000D03*
X166550000Y-68500000D03*
X167500000Y-70500000D03*
X170550000Y-70500000D03*
X172450000Y-70500000D03*
X171500000Y-68500000D03*
X170550000Y-66000000D03*
X172450000Y-66000000D03*
X171500000Y-64000000D03*
X174800000Y-70500000D03*
X176700000Y-70500000D03*
X175750000Y-68500000D03*
D24*
X166400000Y-64000000D03*
X166400000Y-66200000D03*
X179250000Y-68150000D03*
X179250000Y-70350000D03*
X181250000Y-68150000D03*
X181250000Y-70350000D03*
X185800000Y-64300000D03*
X185800000Y-66500000D03*
X188000000Y-64300000D03*
X188000000Y-66500000D03*
X193400000Y-71700000D03*
X193400000Y-69500000D03*
D19*
X195500000Y-72800000D03*
X197700000Y-72800000D03*
X197700000Y-74600000D03*
X195500000Y-74600000D03*
X202300000Y-74600000D03*
X200100000Y-74600000D03*
X202300000Y-77000000D03*
X200100000Y-77000000D03*
X200100000Y-82150000D03*
X202300000Y-82150000D03*
X197100000Y-85400000D03*
X194900000Y-85400000D03*
X177850000Y-78250000D03*
X175650000Y-78250000D03*
D25*
X154900000Y-116025000D03*
X154900000Y-116675000D03*
X154900000Y-117325000D03*
X154900000Y-117975000D03*
X154900000Y-118625000D03*
X154900000Y-119275000D03*
X154900000Y-119925000D03*
X154900000Y-120575000D03*
X154900000Y-121225000D03*
X154900000Y-121875000D03*
X154900000Y-122525000D03*
X154900000Y-123175000D03*
X154900000Y-123825000D03*
X154900000Y-124475000D03*
X162100000Y-124475000D03*
X162100000Y-123825000D03*
X162100000Y-123175000D03*
X162100000Y-122525000D03*
X162100000Y-121875000D03*
X162100000Y-121225000D03*
X162100000Y-120575000D03*
X162100000Y-119925000D03*
X162100000Y-119275000D03*
X162100000Y-118625000D03*
X162100000Y-117975000D03*
X162100000Y-117325000D03*
X162100000Y-116675000D03*
X162100000Y-116025000D03*
D19*
X150250000Y-124500000D03*
X150250000Y-121200000D03*
D26*
X147000000Y-130080000D03*
D27*
X147000000Y-127540000D03*
X147000000Y-125000000D03*
X147000000Y-122460000D03*
X147000000Y-119920000D03*
D24*
X150250000Y-126550000D03*
X150250000Y-128750000D03*
D22*
X196600000Y-55800000D03*
X196600000Y-63800000D03*
D18*
X175950000Y-74750000D03*
X179550000Y-74750000D03*
D28*
X188950000Y-61000000D03*
D29*
X187800000Y-57000000D03*
D28*
X186650000Y-61000000D03*
D30*
X177750000Y-103800000D03*
X177750000Y-106200000D03*
D31*
X177750000Y-105000000D03*
D30*
X165500000Y-103800000D03*
X165500000Y-106200000D03*
D31*
X165500000Y-105000000D03*
D30*
X171750000Y-106200000D03*
X171750000Y-103800000D03*
D31*
X171750000Y-105000000D03*
D17*
X141225000Y-61000000D03*
X148775000Y-61000000D03*
X141225000Y-67000000D03*
X148775000Y-67000000D03*
X141225000Y-73000000D03*
X148775000Y-73000000D03*
X141225000Y-79000000D03*
X148775000Y-79000000D03*
X141225000Y-85000000D03*
X148775000Y-85000000D03*
X154225000Y-67000000D03*
X161775000Y-67000000D03*
X154225000Y-73000000D03*
X161775000Y-73000000D03*
X154225000Y-79000000D03*
X161775000Y-79000000D03*
X154225000Y-85000000D03*
X161775000Y-85000000D03*
X190575000Y-85250000D03*
X183025000Y-85250000D03*
D24*
X168450000Y-66200000D03*
X168450000Y-64000000D03*
D32*
X188000000Y-79000000D03*
X188000000Y-75400000D03*
D15*
X168500000Y-95500000D03*
X141000000Y-95500000D03*
D24*
X184250000Y-76600000D03*
X184250000Y-74400000D03*
D33*
X202000000Y-87700000D03*
X200100000Y-87700000D03*
D34*
X184000000Y-78550000D03*
X184000000Y-80450000D03*
D35*
X191175000Y-68495000D03*
X191175000Y-69765000D03*
X191175000Y-71035000D03*
X191175000Y-72305000D03*
X184825000Y-72305000D03*
X184825000Y-71035000D03*
X184825000Y-69765000D03*
X184825000Y-68495000D03*
D36*
X197905000Y-83175000D03*
X196635000Y-83175000D03*
X195365000Y-83175000D03*
X194095000Y-83175000D03*
X194095000Y-76825000D03*
X195365000Y-76825000D03*
X196635000Y-76825000D03*
X197905000Y-76825000D03*
D37*
X201700000Y-129500000D03*
D38*
X201700000Y-127000000D03*
X201700000Y-124500000D03*
X205000000Y-129500000D03*
X205000000Y-127000000D03*
X205000000Y-124500000D03*
D21*
X168700000Y-72500000D03*
X166800000Y-72500000D03*
D39*
X204375000Y-112000000D03*
X198625000Y-112000000D03*
X198625000Y-108000000D03*
X204375000Y-108000000D03*
X204375000Y-120000000D03*
X198625000Y-120000000D03*
X198625000Y-116000000D03*
X204375000Y-116000000D03*
D40*
X190990000Y-130000000D03*
X188450000Y-130000000D03*
X185910000Y-130000000D03*
X183370000Y-130000000D03*
X180830000Y-130000000D03*
X178290000Y-130000000D03*
X175750000Y-130000000D03*
X173210000Y-130000000D03*
X170240000Y-130000000D03*
X167700000Y-130000000D03*
X165160000Y-130000000D03*
X162620000Y-130000000D03*
X160080000Y-130000000D03*
X157540000Y-130000000D03*
X155000000Y-130000000D03*
X152460000Y-130000000D03*
D26*
X147000000Y-112540000D03*
D27*
X147000000Y-110000000D03*
D41*
X169250000Y-58110000D03*
D42*
X171790000Y-55570000D03*
X166710000Y-55570000D03*
X166710000Y-60650000D03*
X171790000Y-60650000D03*
M02*
